<?xml version="1.0" encoding="UTF-8"?>
<svg id="katman_1" data-name="katman 1" xmlns="http://www.w3.org/2000/svg" viewBox="0 0 256 257">
  <defs>
    <style>
      .cls-1 {
        fill: #1d1d1b;
      }
    </style>
  </defs>
  <path class="cls-1" d="M188.46,203.53c0,4.96-4.06,9.02-9.02,9.02h-21.3c-4.15,0-7.67-2.8-8.75-6.77-.27-1.17-6.95-28.34,18.86-53.78,1.8-2.26,4.15-12.99-.36-21.66-3.61-6.95-11.01-10.29-21.75-9.93-13.08.45-24.18,4.42-33.75,12.18v70.93c0,4.96-4.06,9.02-9.02,9.02s-9.02-4.06-9.02-9.02v-119.21h-17.87c-4.96,0-9.02-3.97-9.02-9.02s4.06-9.02,9.02-9.02h17.87v-12.81c0-5.05,4.06-9.02,9.02-9.02s9.02,3.97,9.02,9.02v12.81h16.51c5.05,0,9.02,4.06,9.02,9.02s-3.97,9.02-9.02,9.02h-16.51v26.71c9.93-5.41,21.03-8.3,33.12-8.66,26.8-.72,36.64,14.44,40.16,23.64,5.41,14.08,2.98,32.49-5.32,39.34-11.01,10.92-13.54,22.2-13.9,29.15h12.99c4.96,0,9.02,4.06,9.02,9.02Z"/>
</svg>