<?xml version="1.0" encoding="UTF-8"?>
<svg id="katman_1" data-name="katman 1" xmlns="http://www.w3.org/2000/svg" viewBox="0 0 256 257">
  <defs>
    <style>
      .cls-1 {
        fill: #1d1d1b;
      }
    </style>
  </defs>
  <path class="cls-1" d="M166.31,166.94h-29.33v-19.31c26.98-4.24,47.47-27.52,47.47-55.59,0-31.22-25.27-56.49-56.49-56.49s-56.4,25.27-56.4,56.49c0,28.06,20.48,51.35,47.38,55.59v19.31h-26.8c-5.05,0-9.02,4.06-9.02,9.02s3.97,9.02,9.02,9.02h26.8v27.43c0,5.05,4.06,9.02,9.02,9.02s9.02-3.97,9.02-9.02v-27.43h29.33c4.96,0,9.02-4.06,9.02-9.02s-4.06-9.02-9.02-9.02ZM89.6,92.04c0-21.21,17.24-38.44,38.35-38.44s38.44,17.24,38.44,38.44-17.24,38.35-38.44,38.35-38.35-17.24-38.35-38.35Z"/>
</svg>