<?xml version="1.0" encoding="UTF-8"?>
<svg id="katman_1" data-name="katman 1" xmlns="http://www.w3.org/2000/svg" viewBox="0 0 256 257">
  <defs>
    <style>
      .cls-1 {
        fill: #1d1d1b;
      }
    </style>
  </defs>
  <path class="cls-1" d="M207.79,125.57h-27.79l35.55-61.63c1.62-2.8,1.62-6.23,0-9.02-1.53-2.8-4.51-4.51-7.76-4.51H48.25c-3.25,0-6.23,1.71-7.85,4.51-1.62,2.8-1.62,6.23,0,9.02l35.55,61.63h-27.7c-4.96,0-9.02,3.97-9.02,9.02s4.06,9.02,9.02,9.02h38.17l33.75,58.47c1.62,2.8,4.6,4.51,7.85,4.51s6.23-1.71,7.76-4.51l33.75-58.47h38.26c4.96,0,9.02-4.06,9.02-9.02s-4.06-9.02-9.02-9.02ZM63.86,68.45h128.32l-33.03,57.12h-62.26l-33.03-57.12ZM128.02,179.53l-20.75-35.92h41.51l-20.76,35.92Z"/>
</svg>