<?xml version="1.0" encoding="UTF-8"?>
<svg id="katman_1" data-name="katman 1" xmlns="http://www.w3.org/2000/svg" viewBox="0 0 256 257">
  <defs>
    <style>
      .cls-1 {
        fill: #1d1d1b;
      }
    </style>
  </defs>
  <path class="cls-1" d="M127.95,42.82c-47.2,0-85.64,38.44-85.64,85.64s38.44,85.73,85.64,85.73,85.73-38.44,85.73-85.73-38.44-85.64-85.73-85.64ZM127.95,196.13c-37.27,0-67.59-30.32-67.59-67.68s30.32-67.59,67.59-67.59,67.68,30.32,67.68,67.59-30.32,67.68-67.68,67.68Z"/>
  <path class="cls-1" d="M143.48,128.45c0,8.57-7.04,15.52-15.52,15.52s-15.43-6.95-15.43-15.52,6.86-15.43,15.43-15.43,15.52,6.95,15.52,15.43Z"/>
</svg>