<?xml version="1.0" encoding="UTF-8"?>
<svg id="katman_1" data-name="katman 1" xmlns="http://www.w3.org/2000/svg" viewBox="0 0 256 257">
  <defs>
    <style>
      .cls-1 {
        fill: #1d1d1b;
      }
    </style>
  </defs>
  <path class="cls-1" d="M207.46,47.65c-.36-.27-.63-.63-.99-.9-.36-.27-.72-.54-1.08-.72-.45-.27-.81-.45-1.26-.63-1.08-.45-2.17-.72-3.34-.72h-55.95c-4.96,0-9.02,4.06-9.02,9.02s4.06,9.02,9.02,9.02h34.74l-30.68,31.67c-10.65-7.58-23.64-12.09-37.72-12.09-35.82,0-64.97,29.15-64.97,65.06s29.15,64.97,64.97,64.97,65.06-29.15,65.06-64.97c0-15.34-5.32-29.42-14.17-40.52l29.69-30.77v30.59c0,4.96,4.06,9.02,9.02,9.02s9.02-4.06,9.02-9.02v-52.97c0-2.35-.9-4.42-2.35-6.05ZM111.17,194.28c-25.81,0-46.92-21.12-46.92-46.92s21.12-47.01,46.92-47.01c12.54,0,23.82,4.87,32.22,12.81,9.11,8.66,14.8,20.75,14.8,34.2,0,25.81-21.12,46.92-47.01,46.92Z"/>
</svg>