<?xml version="1.0" encoding="UTF-8"?>
<svg id="katman_1" data-name="katman 1" xmlns="http://www.w3.org/2000/svg" viewBox="0 0 256 257">
  <defs>
    <style>
      .cls-1 {
        fill: #1d1d1b;
      }
    </style>
  </defs>
  <path class="cls-1" d="M180.64,61.03c-13.45-16.33-30.77-25.99-50.71-28.79h-.09c-21.75-3.07-46.65,1.99-73,15.43-4.42,2.26-6.23,7.67-3.97,12.09,2.26,4.42,7.67,6.23,12.18,3.97,21.48-10.92,41.24-15.61,58.39-14.08,44.94,53.15,44.85,106.21-.27,157.83-16.97.63-36.64-4.33-58.29-14.8-4.42-2.17-9.84-.36-12,4.15s-.36,9.93,4.15,12.09c25.09,12.18,45.93,16.69,63.17,16.69,34.92,0,54.69-18.59,63.17-29.42,28.79-36.37,27.43-98.27-2.71-135.18ZM169.27,185.02c-5.05,6.41-11.01,11.37-17.69,14.98,30.14-45.21,30.77-93.4,1.99-139.69,4.78,3.34,9.11,7.4,13.08,12.18,24.82,30.32,25.99,82.93,2.62,112.53Z"/>
</svg>