<?xml version="1.0" encoding="UTF-8"?>
<svg id="katman_1" data-name="katman 1" xmlns="http://www.w3.org/2000/svg" viewBox="0 0 256 257">
  <defs>
    <style>
      .cls-1 {
        fill: #1d1d1b;
      }
    </style>
  </defs>
  <path class="cls-1" d="M186.75,43.4v170.19c0,4.96-3.97,9.02-9.02,9.02s-9.02-4.06-9.02-9.02v-43.41h-90.42c-4.96,0-9.02-4.06-9.02-9.02s4.06-9.02,9.02-9.02h61.63c6.14-22.92,5.59-41.15-1.62-51.8-3.88-5.78-9.48-8.93-16.51-9.66h-.27c-6.86,0-13.08,2.71-17.51,7.85-5.14,6.05-7.22,14.89-5.59,24.27.9,4.87-2.44,9.57-7.31,10.38-4.87.9-9.57-2.44-10.47-7.31-2.53-14.62.99-28.88,9.66-38.98,7.94-9.29,19.49-14.26,32.4-14.17,13.08,1.17,23.73,7.31,30.59,17.51,6.86,10.38,12.99,29.24,5.23,61.9h10.2V43.4c0-4.96,4.06-9.02,9.02-9.02s9.02,4.06,9.02,9.02Z"/>
</svg>