<?xml version="1.0" encoding="UTF-8"?>
<svg id="katman_1" data-name="katman 1" xmlns="http://www.w3.org/2000/svg" viewBox="0 0 256 257">
  <defs>
    <style>
      .cls-1 {
        fill: #1d1d1b;
      }
    </style>
  </defs>
  <path class="cls-1" d="M127.14,70.27h-1.62c.27-.09.54-.09.81-.09s.54,0,.81.09Z"/>
  <path class="cls-1" d="M183.54,25.79c-3.52-3.43-9.29-3.43-12.72.09-17.05,17.15-31.85,25.81-44.49,26.26-1.53.09-2.98,0-4.33-.18-12.27-1.53-24.18-12.18-35.37-31.49-2.53-4.33-8.03-5.87-12.36-3.34-4.33,2.53-5.78,8.03-3.25,12.36,8.57,14.8,17.6,25.45,27.52,32.13-12.54,9.39-20.76,25-20.76,42.68,0,25.54,17.06,46.83,39.52,51.35v19.04h-32.4c-5.05,0-9.02,4.06-9.02,9.02s3.97,9.02,9.02,9.02h32.4v39.34c0,4.96,4.06,9.02,9.02,9.02s9.02-4.06,9.02-9.02v-39.34h32.58c4.96,0,9.02-4.06,9.02-9.02s-4.06-9.02-9.02-9.02h-32.58v-19.04c22.47-4.51,39.52-25.81,39.52-51.35,0-17.6-8.12-33.12-20.48-42.5,9.39-5.23,19.04-12.9,29.24-23.19,3.52-3.52,3.43-9.29-.09-12.81ZM156.83,104.29c0,18.86-13.72,34.2-30.5,34.2s-30.5-15.34-30.5-34.2,12.9-33.3,29.24-34.02h.45c.27-.09.54-.09.81-.09s.54,0,.81.09c16.42.45,29.69,15.52,29.69,34.02Z"/>
</svg>