<?xml version="1.0" encoding="UTF-8"?>
<svg id="katman_1" data-name="katman 1" xmlns="http://www.w3.org/2000/svg" viewBox="0 0 256 257">
  <defs>
    <style>
      .cls-1 {
        fill: #1d1d1b;
      }
    </style>
  </defs>
  <path class="cls-1" d="M195.5,132.54l-59.74-103.41c-3.16-5.59-12.36-5.59-15.61,0l-59.65,103.41c-1.62,2.8-1.62,6.23,0,9.02,1.53,2.8,4.51,4.51,7.76,4.51h50.71v24.91h-28.06c-4.96,0-9.02,4.06-9.02,9.02s4.06,9.02,9.02,9.02h28.06v34.02c0,4.96,4.06,9.02,9.02,9.02s9.02-4.06,9.02-9.02v-34.02h29.33c4.96,0,9.02-3.97,9.02-9.02s-4.06-9.02-9.02-9.02h-29.33v-24.91h50.62c3.25,0,6.23-1.71,7.85-4.51,1.62-2.8,1.62-6.23,0-9.02ZM83.87,128.03l44.13-76.34,44.04,76.34h-88.16Z"/>
</svg>