<?xml version="1.0" encoding="UTF-8"?>
<svg id="katman_1" data-name="katman 1" xmlns="http://www.w3.org/2000/svg" viewBox="0 0 256 257">
  <defs>
    <style>
      .cls-1 {
        fill: #1d1d1b;
      }
    </style>
  </defs>
  <path class="cls-1" d="M180,131.27h27.79c4.96,0,9.02-3.97,9.02-9.02s-4.06-9.02-9.02-9.02h-38.26l-33.75-58.48c-3.16-5.59-12.36-5.59-15.61,0l-33.75,58.48h-38.17c-5.05,0-9.02,4.06-9.02,9.02s3.97,9.02,9.02,9.02h27.7l-35.55,61.63c-1.62,2.8-1.62,6.23,0,9.02,1.62,2.8,4.6,4.51,7.85,4.51h159.54c3.25,0,6.23-1.71,7.76-4.51,1.62-2.8,1.62-6.23,0-9.02l-35.55-61.63ZM128.02,77.31l20.75,35.92h-41.51l20.75-35.92ZM63.86,188.4l33.03-57.12h62.27l33.03,57.12H63.86Z"/>
</svg>