<?xml version="1.0" encoding="UTF-8"?>
<svg id="katman_1" data-name="katman 1" xmlns="http://www.w3.org/2000/svg" viewBox="0 0 256 257">
  <defs>
    <style>
      .cls-1 {
        fill: #1d1d1b;
      }
    </style>
  </defs>
  <path class="cls-1" d="M195.5,115.28c-1.62-2.8-4.6-4.51-7.85-4.51h-50.62v-25h27.97c5.05,0,9.02-4.06,9.02-9.02s-3.97-9.02-9.02-9.02h-27.97v-33.93c0-5.05-4.06-9.02-9.02-9.02s-9.02,3.97-9.02,9.02v33.93h-29.42c-4.96,0-9.02,4.06-9.02,9.02s4.06,9.02,9.02,9.02h29.42v25h-50.71c-3.25,0-6.23,1.71-7.76,4.51-1.62,2.8-1.62,6.23,0,9.02l59.65,103.41c1.62,2.8,4.6,4.51,7.85,4.51s6.23-1.71,7.76-4.51l59.74-103.41c1.62-2.8,1.62-6.23,0-9.02ZM128,205.16l-44.13-76.34h88.16l-44.04,76.34Z"/>
</svg>